<?xml version="1.0" encoding="utf-8"?>
<!-- Generator: Adobe Illustrator 27.5.0, SVG Export Plug-In . SVG Version: 6.00 Build 0)  -->
<svg version="1.1" xmlns="http://www.w3.org/2000/svg" xmlns:xlink="http://www.w3.org/1999/xlink" x="0px" y="0px"
	 viewBox="0 0 500 500" style="enable-background:new 0 0 500 500;" xml:space="preserve">
<g id="BACKGROUND">
	<rect style="fill:#FFFFFF;" width="500" height="500"/>
</g>
<g id="OBJECTS">
	<g>
		<defs>
			<rect id="SVGID_1_" width="500" height="500"/>
		</defs>
		<clipPath id="SVGID_00000024712835201280255780000004752801831853349524_">
			<use xlink:href="#SVGID_1_"  style="overflow:visible;"/>
		</clipPath>
		<g style="clip-path:url(#SVGID_00000024712835201280255780000004752801831853349524_);">
			<path style="fill:none;stroke:#1B1B1B;stroke-linecap:round;stroke-linejoin:round;stroke-miterlimit:10;" d="M259.913,179.32
				c0.149-1.506,0.348-3.007,0.599-4.496c0,0-25.495-0.285-27.59-30.925c0,0,1.571,5.761-7.856,14.927
				c-9.428,9.166-9.531,21.473-5.079,26.972c0,0-13.094-4.714-10.475-17.284c0,0-5.761,10.999-15.713,10.737l53.239,59.774
				l12.352-49.455c0,0,26.422,0.474,35.613,25.958s8.773,63.084,15.04,71.44c0,0-9.609-4.178-16.711-2.089
				c0,0-23.395-24.649-27.155-22.56s16.221,21.693,17.057,22.111c0.835,0.418-6.688,1.244-9.195,7.093
				c-2.507,5.849-18.724,21.764-27.497,22.6c-8.773,0.836-54.311,0.418-66.426-2.089c-12.115-2.507-24.649-0.418-19.218,2.924
				c5.431,3.342,13.787-6.684,10.027-32.587s3.342-50.133,3.342-50.133"/>
			<path style="fill:none;stroke:#1B1B1B;stroke-linecap:round;stroke-linejoin:round;stroke-miterlimit:10;" d="M260.315,174.799
				c12.57-0.786,15.975-7.333,22.784-10.999c6.809-3.666,12.832-9.166,13.879-15.975c1.048-6.809,9.166-8.642,11.261-17.284
				c0,0,3.143,18.07-2.095,31.425s-19.885,29.907-11.523,41.377c13.934,19.113,7.595,29.068-10.213,26.712
				c-16.742-2.216-26.829-27.093-24.495-50.736"/>
			<path style="fill:none;stroke:#1B1B1B;stroke-linecap:round;stroke-linejoin:round;stroke-miterlimit:10;" d="M232.448,129.809"
				/>
			<path style="fill:none;stroke:#1B1B1B;stroke-linecap:round;stroke-linejoin:round;stroke-miterlimit:10;" d="M-204.259,444.038
				c0,0,87.832-38.292,171.517-26.337c83.684,11.955,143.333,5.783,180.508-13.119c40.491-20.589,44.407-50.911,33.25-51.974
				c-11.157-1.063-2.125,19.657,43.033-3.188c45.158-22.845,86.067-58.441,86.067-58.441l33.716,9.75l47.308-28.111l-13.027,34.624
				c0,0,3.428,1.029,5.142,12.684c1.714,11.655-3.428,18.855-5.485,18.855c-2.057,0-3.211-31.481-12.684-37.024
				c-7.675-4.49-5.932,5.419-3.189,14.674c2.742,9.256,0.79,18.235,0.79,18.235s-8.739-28.699-14.209-26.159
				c-4.364,2.026,2.553,37.129,5.982,35.073c3.428-2.057-6.21-29.706-12.038-27.649c-5.828,2.057,3.81,18.736-2.361,30.049
				l-39.574,28.368c0,0-80.345-29.407-112.903-26.782c-32.558,2.626-54.088,9.977-60.39-11.028
				c-6.302-21.005,0.658-89.907-4.946-119.221c-5.604-29.314,18.968-45.264,39.66-46.558c0,0-2.832-13.946,8.887-23.627
				c11.719-9.681,21.91-4.586,28.534-29.043c6.624-24.457,25.986-51.462,52.481-57.067c26.495-5.605,48.405,8.152,58.596,22.929
				c10.191,14.776,8.152,33.629,4.076,31.591s3.057-11.21-8.662-13.248c-11.719-2.038-26.499-9.538-38.325,6.005
				c-7.282,9.57-22.668,12.068-23.328,4.186c-1.001-11.957-5.732-18.039-10.124-15.674c-7.841,4.222-10.496,15.134-7.631,23.984
				c2.096,6.475,9.507,9.772,15.386,6.345c0.653-0.381,1.193-0.807,1.549-1.282c2.136-2.848-2.127-6.678-5.933-4.272
				c-6.035,3.817-4.493,21.918-4.493,21.918"/>
			<path style="fill:none;stroke:#1B1B1B;stroke-linecap:round;stroke-linejoin:round;stroke-miterlimit:10;" d="M161.699,168.145
				c1.585,27.689,45.322,43.785,45.322,43.785l-10.273,4.623l48.516,34.364c4.529,3.208,7.329,8.321,7.593,13.864l1.875,39.337"/>
			<path style="fill:none;stroke:#1B1B1B;stroke-linecap:round;stroke-linejoin:round;stroke-miterlimit:10;" d="M378.085,307.841
				c0,0,2.585,32.562-26.742,48.376c-31.78,17.136-77.246,35.256-67.28,63.559c8.687,24.672,63.121,29.581,163.847-14.564
				c100.726-44.145,159.58,45.904,159.58,45.904"/>
		</g>
	</g>
</g>
</svg>
