<svg xmlns="http://www.w3.org/2000/svg" viewBox="0 0 835.51 305.98"><defs><style>.cls-1{fill:#ededed;}.cls-2{fill:#fff;}</style></defs><g id="Layer_2" data-name="Layer 2"><g id="Layer_1-2" data-name="Layer 1"><path class="cls-1" d="M194.89,42c0-6.58-1.9-9.66-7.83-12.32-18.34-8.26-36.39-17.18-56.15-21.75C101,1,70.63,0,40.19.16a40.48,40.48,0,0,0-40,40q-.37,93.63,0,187.28c.07,20.36,16,37.89,36.3,40.31,9.2,1.1,18.52,1.21,27.79,1.61,31.52,1.34,62,7.13,90.94,20.24,12.7,5.75,25.77,10.7,39.51,16.37v-6.46C194.71,213.66,194.62,127.81,194.89,42ZM153.55,243.4l-22.23-2.66-34.75-68L61.44,232.39l-21.81-2.61-22.09-2.64,57.69-86.93-53.46-98,22,2.62,22,2.63L96.82,111,129.3,55l21.4,2.56,21.4,2.56-54.21,82.27L175.64,246Z"/><path class="cls-2" d="M417,43.26c0-21.85-13.55-39-34.09-42.55-6.39-1.1-13.1-.63-19.66-.49-24.43.54-48.8,1.67-72.84,6.7-22.6,4.73-43.1,14.72-63.75,24.46-3.31,1.56-4.41,3.36-4.4,7.06q.18,130.94.09,261.86v5.34c2-.7,3.31-1.12,4.61-1.65q20.59-8.42,41.16-16.89c14.54-6,29.37-11.45,45-13.27q30.39-3.51,61-5.22c22.18-1.27,38.85-15,42.44-36.37a48.06,48.06,0,0,0,.45-7.69Q417.07,133.91,417,43.26Zm-30.84,171.9Q369.06,234.51,336.27,240l-63.62,10.68-18,3,.43-206.45,18-3,69.11-11.61q26-4.37,40.72,7t14.61,36q0,25.65-16.54,41.83a42.82,42.82,0,0,1-6.06,5.05,38.69,38.69,0,0,1,11.24,4.88Q403.46,138,403.39,164.2,403.33,195.83,386.19,215.16Z"/><path class="cls-2" d="M358.33,151.84q-7.51-5.13-22.58-2.59l-45,7.57-.12,55,45.74-7.68q14.63-2.46,22-11t7.44-23.34Q365.85,156.95,358.33,151.84Z"/><path class="cls-2" d="M354.91,105.29q7-7.22,7-19.32,0-10.65-7.28-14.67T332.4,69.79l-41.52,7-.09,45.35,43.07-7.23Q347.93,112.51,354.91,105.29Z"/><path class="cls-2" d="M491,195.91q-17.61,3-27.46-9.79t-9.81-38.37q.06-26.24,10-42.69t27.47-19.38q17.51-2.94,27.41,10.17t9.85,39.35q0,25.62-10,41.69t-27.47,19m.29-138.2Q460.94,62.8,443,88.47t-18,64.34q-.09,37.82,17.75,57t48.12,14.09q30.39-5.1,48.27-30.28t18-63q.09-38.67-17.7-58.34T491.24,57.71"/><path class="cls-2" d="M631.35,205.24q-17.61,3-27.46-9.79t-9.8-38.37q0-26.24,10-42.69T631.58,95q17.5-2.94,27.41,10.17t9.85,39.35q-.06,25.62-10,41.69t-27.47,19M631.64,67q-30.28,5.08-48.21,30.76t-18,64.34q-.07,37.82,17.76,57t48.13,14.09q30.39-5.11,48.27-30.28t17.94-63q.09-38.67-17.69-58.34T631.64,67"/><polyline class="cls-2" points="832.2 19.82 813.83 22.9 795.58 25.97 742.8 100.08 742.94 34.8 728.55 37.22 714.26 39.62 713.93 197.15 728.33 194.74 742.61 192.34 742.72 139.37 756.73 120.65 797.92 183.05 816.72 179.89 835.51 176.74 777.18 93.45 832.2 19.82"/></g></g></svg>